#!OML:ASF E:\emotionWalksFemale\Project 1\Capture day 1\Session 1\Female1.ASF
:FULLY-SPECIFIED
:DEGREES
2843
root 9.70072 14.927 30.2863 4.67898 -16.9353 -2.93473
lowerback 19.8112 1.39179 -1.77267
upperback 1.03941 1.7091 2.76761
thorax -10.1376 0.958753 3.57724
lowerneck -11.5556 3.89191 2.44844
upperneck 10.4545 5.5397 -5.51115
head 5.26688 2.42939 -1.67536
rclavicle 8.54774e-015 1.03368e-014
rhumerus -39.2742 -2.48658 -72.53
rradius 28.8123
rwrist 30.8732
rhand -0.107285 -56.6555
rfingers 7.12502
rthumb 25.4876 -84.971
lclavicle 8.54774e-015 1.03368e-014
lhumerus -48.7117 18.189 70.978
lradius 35.3207
lwrist -15.6265
lhand 0.495398 -27.4942
lfingers 7.12502
lthumb 26.0648 0.737477
rfemur -11.4895 0.871645 28.5149
rtibia 34.9152
rfoot -19.3106 -31.128
rtoes -12.3005
lfemur -41.1811 0.258913 -14.7949
ltibia 66.1535
lfoot -12.9187 2.00284
ltoes -25.4224
2844
root 9.69572 14.9073 30.3727 4.85825 -17.0154 -3.09848
lowerback 19.8726 1.36593 -1.76794
upperback 1.10344 1.67569 2.78681
thorax -10.0981 0.941431 3.60475
lowerneck -11.7708 3.98305 2.48249
upperneck 10.0652 5.63769 -5.53047
head 5.18734 2.48034 -1.6771
rclavicle 2.55438e-014 -1.23246e-014
rhumerus -38.0811 -1.82871 -73.42
rradius 29.0449
rwrist 30.6509
rhand 0.0745947 -57.2011
rfingers 7.12502
rthumb 25.6618 -85.4915
lclavicle 2.55438e-014 -1.23246e-014
lhumerus -48.6523 18.9851 70.309
lradius 34.921
lwrist -16.4158
lhand 4.85969 -26.4519
lfingers 7.12502
lthumb 30.2361 1.0924
rfemur -11.3591 0.545242 28.5984
rtibia 34.8884
rfoot -18.113 -31.5636
rtoes -16.9823
lfemur -41.6661 -0.482961 -13.8572
ltibia 63.6862
lfoot -13.8591 3.04219
ltoes -23.5952
2845
root 9.68419 14.9098 30.4565 4.9175 -17.1325 -3.13661
lowerback 19.8925 1.46035 -1.90514
upperback 1.20502 1.76474 2.76891
thorax -10.0066 0.986373 3.63784
lowerneck -11.7647 3.97132 2.58581
upperneck 9.50641 5.59733 -5.69609
head 5.01914 2.46329 -1.75197
rclavicle 4.09496e-014 -2.42517e-014
rhumerus -36.9763 -1.3928 -74.1495
rradius 29.2385
rwrist 30.1238
rhand 0.334474 -57.4146
rfingers 7.12502
rthumb 25.9107 -85.6689
lclavicle 4.09496e-014 -2.42517e-014
lhumerus -48.5709 19.6272 69.6898
lradius 34.6702
lwrist -17.3801
lhand 9.48204 -25.728
lfingers 7.12502
lthumb 34.6349 0.912546
rfemur -9.87394 1.66566 28.2163
rtibia 34.902
rfoot -29.9132 -23.9074
rtoes 22.8769
lfemur -41.7319 -1.33172 -12.9811
ltibia 60.8989
lfoot -14.0253 4.66021
ltoes -29.8942
2846
root 9.67903 14.8796 30.5556 4.98499 -17.3173 -3.30104
lowerback 19.965 1.59405 -1.94344
upperback 1.25785 1.9355 2.82064
thorax -10.0053 1.06918 3.66786
lowerneck -11.6465 3.90785 2.3758
upperneck 8.9361 5.50228 -5.55543
head 4.809 2.43036 -1.68788
rclavicle 5.38706e-014 5.96354e-015
rhumerus -35.9621 -0.864257 -74.708
rradius 29.4784
rwrist 29.6907
rhand 0.76038 -57.1405
rfingers 7.12502
rthumb 26.3185 -85.3346
lclavicle 5.38706e-014 5.96354e-015
lhumerus -48.6452 20.1545 69.1538
lradius 34.4062
lwrist -18.4701
lhand 13.5183 -25.6108
lfingers 7.12502
lthumb 38.4552 0.0631626
rfemur -10.4008 0.339176 28.5888
rtibia 34.4662
rfoot -18.8756 -31.2086
rtoes -16.2723
lfemur -41.8236 -2.5158 -11.845
ltibia 58.1418
lfoot -14.3726 6.24155
ltoes -30.1086
2847
root 9.67395 14.881 30.6516 5.14111 -17.5181 -3.77181
lowerback 20.0876 1.66511 -1.6262
upperback 1.28603 2.10461 2.88348
thorax -10.0467 1.1358 3.50554
lowerneck -11.6357 3.90203 2.18951
upperneck 8.51238 5.46853 -5.24678
head 4.66051 2.4344 -1.56837
rclavicle -7.05686e-015 1.63003e-014
rhumerus -34.9813 -0.0374077 -75.5122
rradius 29.9227
rwrist 29.1334
rhand 1.16376 -56.4823
rfingers 7.12502
rthumb 26.7046 -84.6181
lclavicle -7.05686e-015 1.63003e-014
lhumerus -48.6885 20.6147 68.4464
lradius 34.0483
lwrist -19.5641
lhand 16.9265 -25.7644
lfingers 7.12502
lthumb 41.6619 -1.06205
rfemur -9.84572 0.123559 28.8982
rtibia 34.1316
rfoot -19.1692 -30.8151
rtoes -15.9046
lfemur -41.8873 -4.07757 -10.1542
ltibia 55.2585
lfoot -15.0009 7.52069
ltoes -24.1152
2848
root 9.66766 14.8849 30.7437 5.33733 -17.6952 -4.13304
lowerback 20.1374 1.70299 -1.46527
upperback 1.35168 2.18876 2.89065
thorax -10.0017 1.16647 3.39617
lowerneck -11.8041 3.99302 2.25684
upperneck 8.18172 5.55457 -5.17483
head 4.589 2.48602 -1.5497
rclavicle 1.23246e-014 -1.80894e-014
rhumerus -33.8878 0.649832 -76.372
rradius 30.3051
rwrist 28.2953
rhand 1.26989 -55.8664
rfingers 7.12502
rthumb 26.8061 -83.9866
lclavicle 1.23246e-014 -1.80894e-014
lhumerus -48.5415 21.1553 67.633
lradius 33.6731
lwrist -20.3766
lhand 19.6623 -25.7952
lfingers 7.12502
lthumb 44.2204 -1.99501
rfemur -9.16015 -0.02079 29.1198
rtibia 33.2875
rfoot -18.9982 -30.3983
rtoes -16.1664
lfemur -42.0399 -5.73571 -8.46225
ltibia 52.355
lfoot -15.4621 8.89027
ltoes -21.0344
2849
root 9.66176 14.8663 30.8365 5.529 -17.8708 -4.33457
lowerback 20.2513 1.71477 -1.48372
upperback 1.37206 2.19218 2.82896
thorax -10.0401 1.16691 3.33644
lowerneck -12.0241 4.09586 2.56463
upperneck 7.93029 5.65834 -5.45143
head 4.56873 2.53007 -1.67395
rclavicle -6.09275e-014 -4.37326e-015
rhumerus -32.8318 1.54845 -77.3256
rradius 30.6732
rwrist 26.9188
rhand 0.816941 -55.2512
rfingers 7.12502
rthumb 26.3726 -83.4371
lclavicle -6.09275e-014 -4.37326e-015
lhumerus -48.4789 21.6774 66.7567
lradius 33.4442
lwrist -20.8113
lhand 21.4991 -25.6216
lfingers 7.12502
lthumb 45.929 -2.49759
rfemur -8.58899 0.0675211 29.1727
rtibia 32.7799
rfoot -20.0017 -29.7854
rtoes -13.5109
lfemur -42.2612 -7.02431 -6.96363
ltibia 49.4158
lfoot -15.5376 9.88552
ltoes -22.3015
2850
root 9.65422 14.8661 30.9348 5.6809 -18.0687 -4.62396
lowerback 20.5478 1.68895 -1.38673
upperback 1.30479 2.17341 2.76101
thorax -10.2712 1.15423 3.20823
lowerneck -11.8012 4.16142 2.26959
upperneck 7.14601 5.6887 -4.76676
head 4.26178 2.59281 -1.42471
rclavicle 2.27608e-014 -2.42517e-014
rhumerus -32.0578 3.20898 -78.5823
rradius 31.4345
rwrist 24.7751
rhand -0.0756231 -54.5412
rfingers 7.12502
rthumb 25.5179 -82.8524
lclavicle 2.27608e-014 -2.42517e-014
lhumerus -48.7682 22.2261 65.7014
lradius 33.4931
lwrist -21.1125
lhand 22.2361 -25.3751
lfingers 7.12502
lthumb 46.6122 -2.53986
rfemur -8.18827 -0.115927 29.3676
rtibia 32.3651
rfoot -18.7025 -30.3574
rtoes -17.5912
lfemur -42.2412 -9.00084 -5.07926
ltibia 46.3796
lfoot -15.9791 11.0413
ltoes -21.1866
2851
root 9.64865 14.8495 31.0361 5.70912 -18.2785 -4.88077
lowerback 20.8823 1.71495 -1.35033
upperback 1.29634 2.21098 2.7274
thorax -10.4655 1.17028 3.13568
lowerneck -10.6684 4.20709 0.631841
upperneck 5.1655 5.74155 -2.61138
head 3.69018 2.73575 -0.600362
rclavicle 1.50082e-014 2.49475e-014
rhumerus -31.2698 4.55456 -79.592
rradius 32.3192
rwrist 23.3744
rhand 0.294415 -54.0262
rfingers 7.12502
rthumb 25.8723 -82.2861
lclavicle 1.50082e-014 2.49475e-014
lhumerus -49.0566 22.8447 64.6981
lradius 33.6034
lwrist -21.3154
lhand 22.285 -25.0396
lfingers 7.12502
lthumb 46.6575 -2.22397
rfemur -7.73292 -0.119448 29.4946
rtibia 32.3732
rfoot -18.7793 -30.455
rtoes -17.9348
lfemur -42.098 -11.1246 -3.14931
ltibia 43.4271
lfoot -16.4572 12.171
ltoes -19.9918
2852
root 9.64376 14.8258 31.1365 5.7439 -18.5725 -5.08655
lowerback 21.0621 1.82466 -1.38052
upperback 1.37943 2.33711 2.66066
thorax -10.4784 1.22727 3.03912
lowerneck -11.148 3.83849 0.100933
upperneck 5.02577 5.26316 -1.88434
head 3.68319 2.51902 -0.290899
rclavicle -3.54085e-014 2.50469e-014
rhumerus -30.3078 5.26668 -80.2581
rradius 33.1589
rwrist 23.0754
rhand 1.9101 -53.8558
rfingers 7.12502
rthumb 27.4186 -81.8806
lclavicle -3.54085e-014 2.50469e-014
lhumerus -48.9656 23.3178 63.8838
lradius 33.4714
lwrist -21.2457
lhand 21.8381 -24.5552
lfingers 7.12502
lthumb 46.2434 -1.5627
rfemur -7.34181 -0.0137804 29.5613
rtibia 32.4444
rfoot -18.6858 -30.5103
rtoes -18.7604
lfemur -41.9536 -12.8787 -1.34336
ltibia 40.5228
lfoot -16.5736 12.8857
ltoes -21.0724
2853
root 9.64174 14.7923 31.2346 5.9339 -18.8493 -5.39427
lowerback 21.0688 1.88529 -1.3737
upperback 1.44873 2.41395 2.64445
thorax -10.4086 1.26066 2.99415
lowerneck -10.0905 4.34666 0.449833
upperneck 3.68755 5.87788 -2.10367
head 3.03807 2.84289 -0.423363
rclavicle -2.16178e-015 1.3418e-015
rhumerus -29.3147 6.38306 -80.9679
rradius 33.7653
rwrist 21.8315
rhand 1.96286 -53.3305
rfingers 7.12502
rthumb 27.4691 -81.3473
lclavicle -2.16178e-015 1.3418e-015
lhumerus -48.8005 23.6711 63.1861
lradius 33.3029
lwrist -20.7947
lhand 20.5879 -24.035
lfingers 7.12502
lthumb 45.0824 -0.567978
rfemur -5.93106 0.950192 29.4786
rtibia 32.7099
rfoot -29.2334 -23.6397
rtoes 15.7169
lfemur -42.1331 -15.0183 0.874821
ltibia 37.9069
lfoot -16.9455 13.3994
ltoes -22.1108
